<svg width="309" height="127" viewBox="0 0 309 127" fill="none" xmlns="http://www.w3.org/2000/svg">
<path d="M59.8591 93.1949C80.2633 124.141 128.349 70.5557 163.628 77.0801L160.275 88.3818C133.807 76.5809 66.6724 134.373 45.7331 95.1557C26.2563 58.6479 89.2882 44.2087 90.2157 43.8879L98.3132 53.8348L94.96 62.0348L86.1491 65.3505L89.6806 55.5461L84.4369 49.0218C67.1718 52.8366 48.5154 75.9749 59.8591 93.1949ZM119.538 65.1366C119.038 62.1418 111.975 72.5166 114.687 72.4809C114.722 72.4809 120.287 69.5931 119.538 65.1366ZM94.9244 90.6992C89.4666 90.3783 91.9279 83.747 91.9279 83.747L103.307 52.9435L111.084 50.4479C111.084 50.4479 98.0278 83.1053 100.275 83.2479C102.094 83.3549 105.483 77.294 105.483 76.9731C105.162 68.6662 120.002 56.5801 122.356 61.6427C126.815 71.1262 113.153 75.9035 113.153 75.9035C114.258 82.9983 122.285 73.6575 123.604 71.8035C128.099 65.4575 130.239 57.0792 133.521 56.2948C135.269 55.867 136.981 57.8279 136.981 63.1044C136.981 68.3809 133.7 74.727 133.7 74.727C133.7 74.727 141.191 72.8375 143.224 53.1218L149.68 50.9114C149.68 50.9114 145.114 74.1566 134.912 77.8644C123.604 81.9644 136.411 55.5105 126.066 72.4809C118.182 86.4566 110.834 87.847 106.803 82.107C106.482 81.6436 106.232 81.1801 106.018 80.7166C103.593 84.567 98.7769 90.9488 94.9244 90.6992ZM248.027 23.7087C248.027 23.7087 243.426 21.0705 238.574 28.8426C233.117 37.6131 239.645 41.7487 245.744 29.8052L248.027 23.7087ZM198.301 40.1444C198.301 40.1444 193.699 37.5061 188.848 45.2783C183.39 54.0487 189.918 58.1844 196.018 46.2409L198.301 40.1444ZM162.201 51.3392C161.702 48.3444 154.639 58.7192 157.35 58.6835C157.35 58.6835 162.915 55.8314 162.201 51.3392ZM253.307 32.2296C255.554 32.3722 258.836 27.0244 258.836 27.0244L260.834 26.6679C260.834 26.6679 255.411 40.5366 247.92 40.0018C246.101 39.8948 245.174 39.0392 244.746 37.9696C242.498 40.8218 237.754 45.8131 233.117 44.1374C232.082 43.7809 231.511 42.854 231.226 41.7487C230.334 42.7826 225.84 50.4835 221.737 48.0592C217.243 45.4209 224.413 34.547 221.131 35.0818C215.887 35.9374 212.819 46.5261 210.536 52.8009L204.33 54.9044L205.578 51.1253C204.33 52.8722 197.98 61.2505 195.911 53.2644C195.911 53.2644 195.982 53.1574 196.018 53.0861C195.982 53.1218 195.982 53.1574 195.911 53.2644C194.234 55.5818 188.777 62.4627 183.426 60.5731C181.428 59.8601 181.143 57.0792 181.357 55.1183C180.144 56.9009 178.539 59.147 176.755 61.0009C175.435 62.4983 172.582 65.1722 170.477 65.2435C167.837 65.3148 167.017 63.1757 166.91 61.3575C166.874 60.9653 166.91 60.6088 166.91 60.2879C159.205 71.554 153.319 73.5862 149.609 68.3096C142.796 58.5766 162.38 41.9983 165.126 47.8453C169.585 57.3287 155.923 62.1061 155.923 62.1061C157.457 71.9462 169.122 53.4427 169.122 53.4427L169.443 52.6583L178.218 28.2722L185.994 25.7765C185.994 25.7765 173.545 57.1861 175.792 57.3288C176.113 57.3644 176.862 56.6514 177.825 55.6174C179.787 53.1931 182.106 49.7705 182.748 48.2374C186.066 40.18 194.627 32.907 199.621 36.5079L200.37 34.7609L206.827 32.5861C206.827 32.5861 197.766 51.3035 201.369 52.0522C203.687 52.5157 206.077 48.594 208.075 43.9235L212.677 30.6966L217.992 28.9852L216.743 32.5505C216.743 32.5505 223.699 23.8513 227.873 26.4539C231.44 28.6644 221.737 42.6044 225.34 44.0305C226.482 44.494 230.085 38.8253 231.476 34.6539C231.69 33.727 232.011 32.6574 232.368 31.7661C235.685 23.7087 244.246 16.4357 249.24 20.0365L249.989 18.2896H250.025L255.661 2.53131L263.473 0L253.307 32.2296ZM266.541 0.677392C266.256 0.677392 266.042 0.748696 265.863 0.891305C265.685 1.03391 265.614 1.24783 265.614 1.46174C265.614 1.67565 265.685 1.85391 265.828 1.96087C265.97 2.06783 266.22 2.17478 266.577 2.21044C266.826 2.24609 266.969 2.28174 267.076 2.31739C267.183 2.35305 267.29 2.42435 267.326 2.53131C267.361 2.63826 267.397 2.70957 267.397 2.81652C267.397 2.99479 267.326 3.13739 267.183 3.28C267.04 3.42261 266.826 3.45826 266.577 3.45826C266.327 3.45826 266.113 3.38696 265.97 3.28C265.828 3.17305 265.721 3.03044 265.721 2.88783C265.721 2.85218 265.721 2.81652 265.685 2.78087C265.649 2.74522 265.649 2.74522 265.614 2.74522C265.578 2.74522 265.542 2.74522 265.542 2.78087C265.507 2.81652 265.507 2.85218 265.507 2.88783V3.45826C265.507 3.49392 265.507 3.52957 265.542 3.56522C265.578 3.60087 265.578 3.60087 265.614 3.60087C265.649 3.60087 265.685 3.60087 265.685 3.56522C265.721 3.52957 265.721 3.49392 265.721 3.45826V3.35131C265.935 3.56522 266.22 3.67218 266.577 3.67218C266.898 3.67218 267.147 3.60087 267.326 3.42261C267.504 3.24435 267.611 3.06609 267.611 2.81652C267.611 2.67392 267.576 2.53131 267.504 2.42435C267.433 2.31739 267.326 2.21044 267.183 2.17478C267.076 2.13913 266.898 2.06783 266.612 2.03218C266.434 1.99652 266.327 1.96087 266.256 1.96087C266.184 1.96087 266.113 1.88957 266.042 1.85391C265.97 1.81826 265.935 1.74696 265.899 1.67565C265.863 1.60435 265.828 1.53304 265.828 1.46174C265.828 1.31913 265.899 1.17652 266.042 1.03391C266.184 0.891305 266.363 0.855653 266.577 0.855653C266.791 0.855653 266.969 0.926957 267.112 1.03391C267.254 1.14087 267.326 1.24783 267.326 1.39044C267.326 1.42609 267.326 1.46174 267.361 1.49739C267.397 1.53304 267.397 1.53305 267.433 1.53305C267.469 1.53305 267.504 1.53304 267.504 1.49739C267.54 1.46174 267.54 1.42609 267.54 1.39044V0.891305C267.54 0.855653 267.54 0.820001 267.504 0.784349C267.469 0.748696 267.469 0.748696 267.433 0.748696C267.397 0.748696 267.361 0.748696 267.361 0.784349C267.326 0.820001 267.326 0.855653 267.326 0.891305V0.96261C267.076 0.748696 266.862 0.677392 266.541 0.677392ZM270.465 0.96261H270.501V3.38696H270.108C270.073 3.38696 270.037 3.38696 270.001 3.42261C269.966 3.45826 269.966 3.45826 269.966 3.49392C269.966 3.52957 269.966 3.56522 270.001 3.56522C270.037 3.60087 270.073 3.60087 270.108 3.60087H270.857C270.893 3.60087 270.929 3.60087 270.964 3.56522C271 3.52957 271 3.52957 271 3.49392C271 3.45826 271 3.42261 270.964 3.42261C270.929 3.42261 270.893 3.38696 270.857 3.38696H270.679V0.96261H270.822C270.857 0.96261 270.893 0.96261 270.929 0.926957C270.964 0.891305 270.964 0.891305 270.964 0.855653C270.964 0.820001 270.964 0.784349 270.929 0.784349C270.893 0.784349 270.857 0.748696 270.822 0.748696H270.322L269.573 2.49565L268.788 0.748696H268.289C268.253 0.748696 268.218 0.748696 268.182 0.784349C268.146 0.820001 268.146 0.820001 268.146 0.855653C268.146 0.891305 268.146 0.926957 268.182 0.926957C268.218 0.926957 268.253 0.96261 268.289 0.96261H268.432V3.38696H268.253C268.218 3.38696 268.182 3.38696 268.146 3.42261C268.111 3.45826 268.111 3.45826 268.111 3.49392C268.111 3.52957 268.111 3.56522 268.146 3.56522C268.182 3.56522 268.218 3.60087 268.253 3.60087H269.002C269.038 3.60087 269.074 3.60087 269.109 3.56522C269.145 3.52957 269.145 3.52957 269.145 3.49392C269.145 3.45826 269.145 3.42261 269.109 3.42261C269.074 3.42261 269.038 3.38696 269.002 3.38696H268.61V0.96261H268.646L269.43 2.74522H269.68L270.465 0.96261Z" fill="white"/>
<path d="M42.77 113.133C41.86 113.133 40.95 113 40.04 113C37.96 113 35.88 113.133 33.8 113.533C32.76 113.667 31.85 113.933 30.94 114.333C30.16 114.6 29.12 115.4 28.34 115.533C27.56 115.667 26.52 115.267 25.61 115.133C24.44 114.867 23.14 114.867 21.97 114.867C21.71 114.867 21.58 114.867 21.32 114.867C17.29 115 13 117.667 13 119C13 119 13.13 119 13.26 118.867C13.91 118.733 14.82 118.067 15.47 117.8C17.55 117.133 19.76 116.867 21.97 116.867C23.14 116.867 24.31 117 25.61 117.133C26.39 117.267 27.43 117.8 28.08 117.667C28.73 117.533 29.64 116.867 30.29 116.6C31.33 116.2 32.37 115.933 33.41 115.667C37.7 114.733 42.25 114.733 46.67 115.667C48.23 116.067 49.79 116.467 51.35 117.267C51.61 117.4 51.87 117.533 52 117.533C51.87 115.533 46.8 113.533 42.77 113.133Z" fill="#73D0E9"/>
<mask id="mask0" mask-type="alpha" maskUnits="userSpaceOnUse" x="33" y="18" width="128" height="101">
<path d="M159 54C159 48 157.667 43.5 157 42L149 41L112.5 18.5L33 54C35.5 73 40.6 111.3 41 112.5C41.4 113.7 79.1667 117.333 98 119L161 99.5L159 88C160.6 81.6 158.333 73 157 69.5C158.5 67.5 159 61.5 159 54Z" fill="#C4C4C4"/>
</mask>
<g mask="url(#mask0)">
<path d="M59.8591 93.1949C80.2633 124.141 128.349 70.5557 163.628 77.0801L160.275 88.3818C133.807 76.5809 66.6724 134.373 45.7331 95.1557C26.2563 58.6479 89.2882 44.2087 90.2157 43.8879L98.3132 53.8348L94.96 62.0348L86.1491 65.3505L89.6806 55.5461L84.4369 49.0218C67.1718 52.8366 48.5154 75.9749 59.8591 93.1949ZM119.538 65.1366C119.038 62.1418 111.975 72.5166 114.686 72.4809C114.722 72.4809 120.287 69.5931 119.538 65.1366ZM94.9244 90.6992C89.4666 90.3783 91.9279 83.747 91.9279 83.747L103.307 52.9435L111.084 50.4479C111.084 50.4479 98.0278 83.1053 100.275 83.2479C102.094 83.3549 105.483 77.294 105.483 76.9731C105.162 68.6662 120.002 56.5801 122.356 61.6427C126.815 71.1262 113.153 75.9035 113.153 75.9035C114.258 82.9983 122.285 73.6575 123.604 71.8035C128.099 65.4575 130.239 57.0792 133.521 56.2948C135.269 55.867 136.981 57.8279 136.981 63.1044C136.981 68.3809 133.7 74.727 133.7 74.727C133.7 74.727 141.191 72.8375 143.224 53.1218L149.68 50.9114C149.68 50.9114 145.114 74.1566 134.912 77.8644C123.604 81.9644 136.411 55.5105 126.066 72.4809C118.182 86.4566 110.834 87.847 106.803 82.107C106.482 81.6436 106.232 81.1801 106.018 80.7166C103.593 84.567 98.7769 90.9488 94.9244 90.6992ZM248.027 23.7087C248.027 23.7087 243.426 21.0705 238.574 28.8426C233.117 37.6131 239.645 41.7487 245.744 29.8052L248.027 23.7087ZM198.301 40.1444C198.301 40.1444 193.699 37.5061 188.848 45.2783C183.39 54.0487 189.918 58.1844 196.018 46.2409L198.301 40.1444ZM162.201 51.3392C161.702 48.3444 154.639 58.7192 157.35 58.6835C157.35 58.6835 162.915 55.8314 162.201 51.3392ZM253.307 32.2296C255.554 32.3722 258.836 27.0244 258.836 27.0244L260.834 26.6679C260.834 26.6679 255.411 40.5366 247.92 40.0018C246.101 39.8948 245.174 39.0392 244.746 37.9696C242.498 40.8218 237.754 45.8131 233.117 44.1374C232.082 43.7809 231.511 42.854 231.226 41.7487C230.334 42.7826 225.84 50.4835 221.737 48.0592C217.243 45.4209 224.413 34.547 221.131 35.0818C215.887 35.9374 212.819 46.5261 210.536 52.8009L204.33 54.9044L205.578 51.1253C204.33 52.8722 197.98 61.2505 195.911 53.2644C195.911 53.2644 195.982 53.1574 196.018 53.0861C195.982 53.1218 195.982 53.1574 195.911 53.2644C194.234 55.5818 188.777 62.4627 183.426 60.5731C181.428 59.8601 181.143 57.0792 181.357 55.1183C180.144 56.9009 178.539 59.147 176.755 61.0009C175.435 62.4983 172.582 65.1722 170.477 65.2435C167.837 65.3148 167.017 63.1757 166.91 61.3575C166.874 60.9653 166.91 60.6088 166.91 60.2879C159.205 71.554 153.319 73.5862 149.609 68.3096C142.796 58.5766 162.38 41.9983 165.126 47.8453C169.585 57.3288 155.923 62.1061 155.923 62.1061C157.457 71.9462 169.122 53.4427 169.122 53.4427L169.443 52.6583L178.218 28.2722L185.994 25.7765C185.994 25.7765 173.545 57.1861 175.792 57.3288C176.113 57.3644 176.862 56.6514 177.825 55.6174C179.787 53.1931 182.106 49.7705 182.748 48.2374C186.066 40.18 194.627 32.907 199.621 36.5079L200.37 34.7609L206.827 32.5861C206.827 32.5861 197.766 51.3035 201.369 52.0522C203.687 52.5157 206.077 48.594 208.075 43.9235L212.677 30.6966L217.992 28.9852L216.743 32.5505C216.743 32.5505 223.699 23.8513 227.873 26.4539C231.44 28.6644 221.737 42.6044 225.34 44.0305C226.482 44.494 230.085 38.8253 231.476 34.6539C231.69 33.727 232.011 32.6574 232.368 31.7661C235.685 23.7087 244.246 16.4357 249.24 20.0365L249.989 18.2896H250.025L255.661 2.53131L263.473 0L253.307 32.2296ZM266.541 0.677392C266.256 0.677392 266.042 0.748696 265.863 0.891305C265.685 1.03391 265.614 1.24783 265.614 1.46174C265.614 1.67565 265.685 1.85391 265.828 1.96087C265.97 2.06783 266.22 2.17478 266.577 2.21044C266.826 2.24609 266.969 2.28174 267.076 2.31739C267.183 2.35305 267.29 2.42435 267.326 2.53131C267.361 2.63826 267.397 2.70957 267.397 2.81652C267.397 2.99479 267.326 3.13739 267.183 3.28C267.04 3.42261 266.826 3.45826 266.577 3.45826C266.327 3.45826 266.113 3.38696 265.97 3.28C265.828 3.17305 265.721 3.03044 265.721 2.88783C265.721 2.85218 265.721 2.81652 265.685 2.78087C265.649 2.74522 265.649 2.74522 265.614 2.74522C265.578 2.74522 265.542 2.74522 265.542 2.78087C265.507 2.81652 265.507 2.85218 265.507 2.88783V3.45826C265.507 3.49392 265.507 3.52957 265.542 3.56522C265.578 3.60087 265.578 3.60087 265.614 3.60087C265.649 3.60087 265.685 3.60087 265.685 3.56522C265.721 3.52957 265.721 3.49392 265.721 3.45826V3.35131C265.935 3.56522 266.22 3.67218 266.577 3.67218C266.898 3.67218 267.147 3.60087 267.326 3.42261C267.504 3.24435 267.611 3.06609 267.611 2.81652C267.611 2.67392 267.576 2.53131 267.504 2.42435C267.433 2.31739 267.326 2.21044 267.183 2.17478C267.076 2.13913 266.898 2.06783 266.612 2.03218C266.434 1.99652 266.327 1.96087 266.256 1.96087C266.184 1.96087 266.113 1.88957 266.042 1.85391C265.97 1.81826 265.935 1.74696 265.899 1.67565C265.863 1.60435 265.828 1.53304 265.828 1.46174C265.828 1.31913 265.899 1.17652 266.042 1.03391C266.184 0.891305 266.363 0.855653 266.577 0.855653C266.791 0.855653 266.969 0.926957 267.112 1.03391C267.254 1.14087 267.326 1.24783 267.326 1.39044C267.326 1.42609 267.326 1.46174 267.361 1.49739C267.397 1.53304 267.397 1.53305 267.433 1.53305C267.469 1.53305 267.504 1.53304 267.504 1.49739C267.54 1.46174 267.54 1.42609 267.54 1.39044V0.891305C267.54 0.855653 267.54 0.820001 267.504 0.784349C267.469 0.748696 267.469 0.748696 267.433 0.748696C267.397 0.748696 267.361 0.748696 267.361 0.784349C267.326 0.820001 267.326 0.855653 267.326 0.891305V0.96261C267.076 0.748696 266.862 0.677392 266.541 0.677392ZM270.465 0.96261H270.501V3.38696H270.108C270.073 3.38696 270.037 3.38696 270.001 3.42261C269.966 3.45826 269.966 3.45826 269.966 3.49392C269.966 3.52957 269.966 3.56522 270.001 3.56522C270.037 3.60087 270.073 3.60087 270.108 3.60087H270.857C270.893 3.60087 270.929 3.60087 270.964 3.56522C271 3.52957 271 3.52957 271 3.49392C271 3.45826 271 3.42261 270.964 3.42261C270.929 3.42261 270.893 3.38696 270.857 3.38696H270.679V0.96261H270.822C270.857 0.96261 270.893 0.96261 270.929 0.926957C270.964 0.891305 270.964 0.891305 270.964 0.855653C270.964 0.820001 270.964 0.784349 270.929 0.784349C270.893 0.784349 270.857 0.748696 270.822 0.748696H270.322L269.573 2.49565L268.788 0.748696H268.289C268.253 0.748696 268.218 0.748696 268.182 0.784349C268.146 0.820001 268.146 0.820001 268.146 0.855653C268.146 0.891305 268.146 0.926957 268.182 0.926957C268.218 0.926957 268.253 0.96261 268.289 0.96261H268.432V3.38696H268.253C268.218 3.38696 268.182 3.38696 268.146 3.42261C268.111 3.45826 268.111 3.45826 268.111 3.49392C268.111 3.52957 268.111 3.56522 268.146 3.56522C268.182 3.56522 268.218 3.60087 268.253 3.60087H269.002C269.038 3.60087 269.074 3.60087 269.109 3.56522C269.145 3.52957 269.145 3.52957 269.145 3.49392C269.145 3.45826 269.145 3.42261 269.109 3.42261C269.074 3.42261 269.038 3.38696 269.002 3.38696H268.61V0.96261H268.646L269.43 2.74522H269.68L270.465 0.96261Z" fill="#73D0E9"/>
</g>
<circle cx="53" cy="29" r="1" fill="#73D0E9"/>
<circle cx="43.5" cy="34.5" r="1.5" fill="#73D0E9"/>
<circle cx="54.5" cy="39.5" r="1.5" fill="#73D0E9"/>
<circle cx="1" cy="89" r="1" fill="#73D0E9"/>
<circle cx="118.5" cy="118.5" r="1.5" fill="#73D0E9"/>
<circle cx="101" cy="126" r="1" fill="#73D0E9"/>
</svg>
