<svg width="18" height="229" viewBox="0 0 18 229" fill="none" xmlns="http://www.w3.org/2000/svg">
<path d="M11.4559 211.613C11.5907 210.804 12.2646 210.264 12.6689 209.455C13.7471 207.702 14.2862 205.679 14.6905 203.656C15.7687 198.8 15.7687 193.54 14.8253 188.55C14.421 186.662 13.8819 184.639 12.9384 182.886C12.2646 181.672 11.995 181.537 12.2646 180.053C12.5341 178.974 12.6689 177.895 12.6689 176.681C12.8037 174.254 12.8037 171.826 12.5341 169.398C12.3993 168.319 12.2646 167.24 11.8602 166.161C11.7255 165.487 11.0516 164.408 11.0516 163.599C11.0516 162.79 12.8037 161.036 13.3428 160.227C14.1514 158.744 14.6905 156.99 15.0948 155.372C16.173 151.191 16.5774 146.74 16.3078 142.289C16.173 139.996 15.9035 137.704 15.4992 135.411C15.0948 133.523 14.421 131.904 13.8819 130.016C13.3428 127.858 14.1514 124.891 14.1514 122.598C14.1514 120.575 13.8819 118.417 13.3428 116.394C13.0732 115.45 12.8037 114.506 12.3993 113.697C11.995 112.618 11.7255 112.483 12.1298 111.539C12.9384 110.055 13.3428 108.437 13.7471 106.683C14.6905 102.232 14.6905 97.512 13.7471 92.9264C13.4775 91.8474 13.208 90.7684 12.8037 89.6894C12.5341 89.0151 11.8602 88.071 11.7255 87.3966C11.5907 86.7223 12.1298 85.5084 12.2646 84.8341C12.6689 83.6202 12.6689 82.4064 12.6689 81.1926C12.6689 78.8997 12.3993 76.6069 11.7255 74.449C11.4559 73.7746 10.782 72.8305 10.6473 72.1562C10.6473 72.0213 10.6473 71.8864 10.5125 71.8864C10.3777 72.0213 10.5125 71.8864 10.5125 71.8864C10.5125 71.8864 10.5125 71.7516 10.6473 71.7516C10.6473 71.7516 11.0516 71.4818 11.1864 71.4818C14.0166 69.4587 14.1514 63.7941 13.8819 60.6921C13.7471 58.669 13.4775 56.646 12.5341 54.7578C12.2646 54.2183 11.995 53.6788 11.5907 53.2742C11.1864 52.8696 10.5125 52.7347 10.2429 52.3301C9.97339 52.3301 9.83862 52.3301 9.97339 51.9255C10.1082 51.5209 10.1082 51.2511 10.1082 50.8465C10.1082 50.307 9.97339 49.4978 10.2429 49.0932C10.3777 48.5537 10.9168 48.2839 11.3211 47.7445C12.2646 46.3957 12.6689 44.5075 12.8037 42.8891C13.0732 40.5963 12.9384 38.0337 12.2646 35.7409C11.995 35.0665 11.4559 34.3922 11.3211 33.7178C11.0516 33.0435 11.5907 32.504 11.995 31.6948C13.7471 28.0532 14.2862 23.8722 14.5557 19.8261C14.8253 15.5102 14.421 11.0594 13.208 6.87844C12.6689 4.58563 11.5907 1.75333 9.56907 -2.98308e-07L6.29425e-05 -7.16882e-07L5.29864e-05 227.933L9.43428 227.933C11.3211 224.291 11.8602 219.84 11.8602 215.794C11.7255 214.58 11.3211 212.827 11.4559 211.613Z" fill="white"/>
<path d="M13.0732 217.278C13.0732 216.199 13.0732 215.255 13.0732 214.176C13.0732 213.097 12.6688 211.748 13.0732 210.804C13.747 209.32 14.8252 208.106 15.3643 206.488C16.7121 202.442 17.1164 197.856 16.8468 193.54C16.7121 189.764 16.0382 185.448 14.0166 182.076C13.6123 181.267 13.6123 180.997 13.747 180.188C14.0166 179.109 14.1514 178.03 14.1514 176.816C14.2861 174.389 14.2861 171.961 14.0166 169.533C13.8818 168.454 13.747 167.375 13.3427 166.296C13.2079 165.622 12.6688 164.813 12.6688 164.004C12.5341 163.059 12.5341 163.734 12.9384 162.925C13.0732 162.79 13.3427 162.52 13.4775 162.385C13.8818 161.846 14.2861 161.171 14.6905 160.497C18.5989 153.214 18.5989 143.368 16.9816 135.411C16.5773 133.657 16.173 131.904 15.4991 130.286C15.0948 129.207 15.2296 128.398 15.3643 127.184C15.4991 125.835 15.6339 124.351 15.6339 123.003C15.6339 120.845 15.3643 118.552 14.8252 116.394C14.6905 115.585 14.4209 114.91 14.1514 114.101C13.747 112.887 13.2079 112.618 13.747 111.404C15.4991 107.897 16.0382 103.581 16.0382 99.6699C16.0382 97.512 15.9034 95.354 15.4991 93.1961C15.3643 92.1171 15.0948 91.173 14.6905 90.2289C14.4209 89.4197 13.6123 88.3407 13.4775 87.5315C13.3427 86.7223 13.747 85.6433 13.8818 84.6992C14.0166 83.6202 14.1514 82.4064 14.1514 81.1925C14.1514 78.8997 13.8818 76.6069 13.2079 74.449C12.9384 73.7746 12.5341 73.1003 12.2645 72.291C12.1297 71.7515 11.995 72.0213 12.1297 71.6167L12.6688 71.3469C13.8818 70.5377 14.4209 68.6495 14.8252 67.3008C15.9034 63.3895 15.9034 58.5342 14.1514 54.8926C13.8818 54.3531 13.6123 53.6788 13.0732 53.1393C12.6688 52.7347 11.995 52.5998 11.7254 52.1952L11.5906 52.0603C11.5906 52.8696 11.3211 51.9255 11.5906 52.0603C11.5906 51.9255 11.5906 51.7906 11.5906 51.5208C11.5906 50.9814 11.7254 50.307 11.7254 49.7675C11.7254 48.6886 12.1297 48.6885 12.8036 47.8793C15.0948 44.5075 14.96 38.4383 13.3427 34.9317C13.2079 34.6619 12.9384 34.2573 12.8036 33.8527C12.6688 33.3132 12.6688 33.4481 13.0732 32.7737C13.4775 31.9645 13.8818 31.1553 14.1514 30.346C14.96 28.1881 15.4991 25.8953 15.7687 23.6025C16.4425 18.4774 16.3078 13.2174 15.0948 8.22715C14.4209 5.39485 13.3427 1.8882 10.9168 -3.0984e-07L8.89514 -3.98271e-07C10.9168 1.75333 11.995 4.58562 12.6688 7.01331C13.8818 11.1943 14.1514 15.6451 14.0166 19.961C13.8818 24.0071 13.2079 28.1881 11.4559 31.8296C11.0515 32.6389 10.5124 33.1783 10.782 33.8527C10.9168 34.5271 11.4559 35.2014 11.7254 35.8758C12.3993 38.1686 12.5341 40.5963 12.2645 43.024C12.1297 44.6424 11.7254 46.5306 10.782 47.8793C10.3777 48.4188 9.97334 48.6885 9.70379 49.228C9.56902 49.6326 9.70379 50.4419 9.56902 50.9814C9.56902 51.386 9.43424 51.6557 9.43424 52.0603C9.29947 52.3301 9.29947 52.4649 9.70379 52.4649C9.97334 52.8696 10.6472 52.8696 11.0515 53.409C11.4559 53.8137 11.7254 54.3531 11.995 54.8926C12.8036 56.7808 13.2079 58.8039 13.3427 60.827C13.4775 63.929 13.4775 69.5936 10.6472 71.6167C10.5124 71.6167 10.1081 71.8864 10.1081 71.8864C9.97334 71.7515 9.97334 71.8864 9.97334 71.8864C9.97334 71.8864 9.97334 72.0213 10.1081 72.1562C10.2429 72.8305 10.9168 73.7746 11.1863 74.449C11.8602 76.6069 12.1297 78.8997 12.1297 81.1925C12.1297 82.4064 11.995 83.6202 11.8602 84.9689C11.7254 85.7782 11.1863 86.8571 11.3211 87.5315C11.4559 88.2058 12.1297 89.1499 12.3993 89.8243C12.8036 90.9033 13.0732 91.9822 13.3427 93.0612C14.2861 97.512 14.2861 102.232 13.3427 106.818C12.9384 108.437 12.5341 110.055 11.7254 111.673C11.1863 112.618 11.4559 112.752 11.995 113.831C12.3993 114.776 12.6688 115.72 12.9384 116.529C13.4775 118.552 13.6123 120.71 13.747 122.733C13.747 125.026 12.9384 127.993 13.4775 130.151C14.0166 131.904 14.6905 133.657 15.0948 135.546C15.6339 137.839 15.9034 140.131 15.9034 142.424C16.0382 146.74 15.7686 151.191 14.6905 155.507C14.2861 157.125 13.747 158.878 12.9384 160.362C12.5341 161.306 10.6472 163.059 10.6472 163.734C10.6472 164.408 11.3211 165.487 11.4559 166.296C11.7254 167.375 11.8602 168.454 12.1297 169.533C12.3993 171.961 12.5341 174.389 12.2645 176.816C12.1297 177.895 11.995 178.974 11.8602 180.188C11.5906 181.537 11.8602 181.672 12.5341 183.02C13.4775 184.774 14.0166 186.797 14.4209 188.685C15.3643 193.54 15.3643 198.8 14.2861 203.791C13.8818 205.814 13.2079 207.837 12.2645 209.59C11.8602 210.264 11.1863 210.939 11.0515 211.748C10.9168 212.962 11.3211 214.715 11.3211 216.064C11.3211 220.11 11.0515 224.561 9.16468 228.202L10.9168 228.202C12.6688 224.696 12.9384 220.919 13.0732 217.278Z" fill="#55C9C8"/>
</svg>

